<mxfile host="app.diagrams.net" modified="2023-10-20T05:30:21.156Z" agent="Mozilla/5.0 (Windows NT 10.0; Win64; x64) AppleWebKit/537.36 (KHTML, like Gecko) Chrome/116.0.0.0 Safari/537.36" etag="Gg1ESIMVI7MRvuwnNP1u" version="22.0.5" type="device">
  <diagram name="第 1 页" id="kiuiHTJOm0Sa0I4lO8fd">
    <mxGraphModel dx="164" dy="249" grid="1" gridSize="10" guides="1" tooltips="1" connect="1" arrows="1" fold="1" page="1" pageScale="1" pageWidth="827" pageHeight="1169" math="0" shadow="0">
      <root>
        <mxCell id="0" />
        <mxCell id="1" parent="0" />
        <UserObject label="A(&lt;u&gt;a1&lt;/u&gt;, a2)" placeholders="1" name="Variable" id="72ym5MUOB1IseZGL1gTl-1">
          <mxCell style="text;html=1;strokeColor=none;fillColor=none;align=left;verticalAlign=middle;whiteSpace=wrap;overflow=hidden;" vertex="1" parent="1">
            <mxGeometry x="240" y="400" width="80" height="20" as="geometry" />
          </mxCell>
        </UserObject>
        <UserObject label="B(&lt;u&gt;b1&lt;/u&gt;, b2)" placeholders="1" name="Variable" id="72ym5MUOB1IseZGL1gTl-2">
          <mxCell style="text;html=1;strokeColor=none;fillColor=none;align=left;verticalAlign=middle;whiteSpace=wrap;overflow=hidden;" vertex="1" parent="1">
            <mxGeometry x="240" y="440" width="80" height="20" as="geometry" />
          </mxCell>
        </UserObject>
        <UserObject label="C(&lt;u&gt;c1&lt;/u&gt;, c2, &lt;font color=&quot;#ff0000&quot;&gt;a1&lt;/font&gt;)" placeholders="1" name="Variable" id="72ym5MUOB1IseZGL1gTl-4">
          <mxCell style="text;html=1;strokeColor=none;fillColor=none;align=left;verticalAlign=middle;whiteSpace=wrap;overflow=hidden;" vertex="1" parent="1">
            <mxGeometry x="240" y="480" width="80" height="20" as="geometry" />
          </mxCell>
        </UserObject>
        <UserObject label="R1(&lt;u&gt;a1&lt;/u&gt;, &lt;u&gt;b1&lt;/u&gt;, r11, r12)" placeholders="1" name="Variable" id="72ym5MUOB1IseZGL1gTl-5">
          <mxCell style="text;html=1;strokeColor=none;fillColor=none;align=left;verticalAlign=middle;whiteSpace=wrap;overflow=hidden;" vertex="1" parent="1">
            <mxGeometry x="240" y="520" width="120" height="20" as="geometry" />
          </mxCell>
        </UserObject>
        <mxCell id="72ym5MUOB1IseZGL1gTl-7" value="" style="endArrow=classic;html=1;rounded=0;entryX=0.25;entryY=1;entryDx=0;entryDy=0;exitX=0.75;exitY=0;exitDx=0;exitDy=0;" edge="1" parent="1" source="72ym5MUOB1IseZGL1gTl-4" target="72ym5MUOB1IseZGL1gTl-1">
          <mxGeometry width="50" height="50" relative="1" as="geometry">
            <mxPoint x="260" y="510" as="sourcePoint" />
            <mxPoint x="310" y="460" as="targetPoint" />
          </mxGeometry>
        </mxCell>
      </root>
    </mxGraphModel>
  </diagram>
</mxfile>
